<svg width="24" height="24" viewBox="0 0 24 24" fill="none" xmlns="http://www.w3.org/2000/svg">
<path fill-rule="evenodd" clip-rule="evenodd" d="M12.4166 21.4888C13.4033 22.1481 14.5633 22.5 15.75 22.5C17.3413 22.5 18.8674 21.8679 19.9926 20.7426C21.1179 19.6174 21.75 18.0913 21.75 16.5C21.75 15.3133 21.3981 14.1533 20.7388 13.1666C20.0795 12.1799 19.1425 11.4109 18.0461 10.9567C16.9497 10.5026 15.7433 10.3838 14.5795 10.6153C13.4156 10.8468 12.3465 11.4182 11.5074 12.2574C10.6682 13.0965 10.0968 14.1656 9.86529 15.3295C9.63378 16.4933 9.7526 17.6997 10.2067 18.7961C10.6609 19.8925 11.4299 20.8295 12.4166 21.4888ZM13.2499 12.7584C13.99 12.2639 14.86 12 15.75 12C16.9435 12 18.0881 12.4741 18.932 13.318C19.7759 14.1619 20.25 15.3065 20.25 16.5C20.25 17.39 19.9861 18.26 19.4916 19.0001C18.9972 19.7401 18.2943 20.3169 17.4721 20.6575C16.6498 20.9981 15.745 21.0872 14.8721 20.9135C13.9992 20.7399 13.1974 20.3113 12.568 19.682C11.9387 19.0526 11.5101 18.2508 11.3365 17.3779C11.1628 16.505 11.252 15.6002 11.5925 14.7779C11.9331 13.9557 12.5099 13.2529 13.2499 12.7584ZM15 16.8075L16.9425 18.75L18 17.6925L16.5 16.1925V13.5H15V16.8075Z" fill="#1382D3"/>
<path fill-rule="evenodd" clip-rule="evenodd" d="M7.78823 6.56343V4.50867H5.68861C4.99826 4.50867 4.43862 5.0683 4.43861 5.75865L4.43848 18.2375C4.43847 18.9279 4.99811 19.4876 5.68848 19.4876H7.54815V20.9876H5.68848C4.16968 20.9876 2.93846 19.7563 2.93848 18.2375L2.93861 5.75864C2.93863 4.23987 4.16984 3.00867 5.68861 3.00867H7.78823V1.5H9.28823V3.00867H14.7324V1.5H16.2324V3.00867H18.3114C19.8302 3.00867 21.0614 4.23988 21.0614 5.75867V8.93406H19.5614V5.75867C19.5614 5.06831 19.0018 4.50867 18.3114 4.50867H16.2324V6.56343H14.7324V4.50867H9.28823V6.56343H7.78823Z" fill="#1382D3"/>
</svg>
