<svg width="24" height="24" viewBox="0 0 24 24" fill="none" xmlns="http://www.w3.org/2000/svg">
<path fill-rule="evenodd" clip-rule="evenodd" d="M16.9166 6.30761C17.3483 6.59605 17.8558 6.75 18.375 6.75C19.0709 6.74921 19.7382 6.47239 20.2303 5.98028C20.7224 5.48817 20.9992 4.82095 21 4.125C21 3.60583 20.846 3.09831 20.5576 2.66663C20.2692 2.23495 19.8592 1.8985 19.3795 1.69982C18.8999 1.50114 18.3721 1.44915 17.8629 1.55044C17.3537 1.65173 16.886 1.90173 16.5188 2.26885C16.1517 2.63596 15.9017 3.10369 15.8004 3.61289C15.6992 4.12209 15.7511 4.64989 15.9498 5.12955C16.1485 5.6092 16.485 6.01917 16.9166 6.30761ZM17.75 3.1896C17.935 3.06598 18.1525 3 18.375 3C18.6733 3.00034 18.9592 3.11897 19.1701 3.32988C19.381 3.54078 19.4997 3.82674 19.5 4.125C19.5 4.34751 19.434 4.56501 19.3104 4.75002C19.1868 4.93502 19.0111 5.07922 18.8055 5.16437C18.6 5.24951 18.3738 5.27179 18.1555 5.22838C17.9373 5.18498 17.7368 5.07783 17.5795 4.9205C17.4222 4.76316 17.315 4.56271 17.2716 4.34448C17.2282 4.12625 17.2505 3.90005 17.3356 3.69448C17.4208 3.48892 17.565 3.31321 17.75 3.1896ZM21 12.438L14.5607 6H4.5V7.5H13.9393L16.1893 9.75L4.5 21.4394L5.56058 22.5L17.25 10.8112L19.938 13.5L17.25 16.1894L18.3106 17.25L21 14.562C21.2813 14.2802 21.4393 13.8982 21.4393 13.5C21.4393 13.1018 21.2813 12.7198 21 12.438ZM5.99998 15.4395L10.1894 11.25L11.25 12.3106L7.06053 16.5L5.99998 15.4395ZM14.25 21C14.25 21.8284 13.5784 22.5 12.75 22.5C11.9216 22.5 11.25 21.8284 11.25 21C11.25 20.1716 11.9216 19.5 12.75 19.5C13.5784 19.5 14.25 20.1716 14.25 21Z" fill="black"/>
</svg>
