<svg width="24" height="24" viewBox="0 0 24 24" fill="none" xmlns="http://www.w3.org/2000/svg">
<path fill-rule="evenodd" clip-rule="evenodd" d="M7.25003 3.37919C6.88002 3.13196 6.44501 3 6 3C5.40326 3 4.83097 3.23705 4.40901 3.65901C3.98705 4.08097 3.75 4.65326 3.75 5.25C3.75 5.69501 3.88196 6.13002 4.12919 6.50003C4.37643 6.87004 4.72783 7.15843 5.13896 7.32873C5.55009 7.49903 6.00249 7.54358 6.43895 7.45677C6.87541 7.36995 7.27632 7.15566 7.59099 6.84099C7.90566 6.52632 8.11995 6.12541 8.20677 5.68895C8.29358 5.2525 8.24902 4.8001 8.07873 4.38896C7.90843 3.97783 7.62004 3.62643 7.25003 3.37919ZM3.91661 2.13199C4.53329 1.71993 5.25832 1.5 6 1.5C6.99456 1.5 7.94839 1.89509 8.65165 2.59835C9.35491 3.30161 9.75 4.25544 9.75 5.25C9.75 5.99168 9.53006 6.7167 9.11801 7.33339C8.70595 7.95007 8.12028 8.43072 7.43506 8.71455C6.74984 8.99838 5.99584 9.07264 5.26841 8.92795C4.54098 8.78325 3.8728 8.4261 3.34835 7.90165C2.8239 7.3772 2.46675 6.70902 2.32205 5.98159C2.17736 5.25416 2.25162 4.50016 2.53545 3.81494C2.81928 3.12971 3.29993 2.54404 3.91661 2.13199ZM19.25 9.37919C18.88 9.13196 18.445 9 18 9C17.4033 9 16.831 9.23705 16.409 9.65901C15.9871 10.081 15.75 10.6533 15.75 11.25C15.75 11.695 15.882 12.13 16.1292 12.5C16.3764 12.87 16.7278 13.1584 17.139 13.3287C17.5501 13.499 18.0025 13.5436 18.439 13.4568C18.8754 13.37 19.2763 13.1557 19.591 12.841C19.9057 12.5263 20.12 12.1254 20.2068 11.689C20.2936 11.2525 20.249 10.8001 20.0787 10.389C19.9084 9.97783 19.62 9.62643 19.25 9.37919ZM15.9166 8.13199C16.5333 7.71993 17.2583 7.5 18 7.5C18.9946 7.5 19.9484 7.89509 20.6517 8.59835C21.3549 9.30161 21.75 10.2554 21.75 11.25C21.75 11.9917 21.5301 12.7167 21.118 13.3334C20.706 13.9501 20.1203 14.4307 19.4351 14.7145C18.7498 14.9984 17.9958 15.0726 17.2684 14.9279C16.541 14.7833 15.8728 14.4261 15.3483 13.9017C14.8239 13.3772 14.4667 12.709 14.3221 11.9816C14.1774 11.2542 14.2516 10.5002 14.5355 9.81494C14.8193 9.12971 15.2999 8.54404 15.9166 8.13199ZM21.75 22.5H23.25V20.25C23.25 19.2554 22.8549 18.3016 22.1516 17.5984C21.4484 16.8951 20.4946 16.5 19.5 16.5H16.5C15.5054 16.5 14.5516 16.8951 13.8483 17.5984C13.1451 18.3016 12.75 19.2554 12.75 20.25V22.5H14.25V20.25C14.25 19.6533 14.4871 19.081 14.909 18.659C15.331 18.2371 15.9033 18 16.5 18H19.5C20.0967 18 20.669 18.2371 21.091 18.659C21.5129 19.081 21.75 19.6533 21.75 20.25V22.5ZM11.25 16.5H9.75V14.25C9.75 13.6533 9.51295 13.081 9.09099 12.659C8.66903 12.2371 8.09674 12 7.5 12H4.5C3.90326 12 3.33097 12.2371 2.90901 12.659C2.48705 13.081 2.25 13.6533 2.25 14.25V16.5H0.75V14.25C0.75 13.2554 1.14509 12.3016 1.84835 11.5983C2.55161 10.8951 3.50544 10.5 4.5 10.5H7.5C8.49456 10.5 9.44839 10.8951 10.1517 11.5983C10.8549 12.3016 11.25 13.2554 11.25 14.25V16.5Z" fill="black"/>
</svg>
