<svg width="24" height="24" viewBox="0 0 24 24" fill="none" xmlns="http://www.w3.org/2000/svg">
<path fill-rule="evenodd" clip-rule="evenodd" d="M6.16652 3.26957C7.89323 2.11581 9.9233 1.5 12 1.5C14.7838 1.50314 17.4527 2.61039 19.4212 4.57884C21.3896 6.5473 22.4969 9.21619 22.5 12C22.5 14.0767 21.8842 16.1068 20.7304 17.8335C19.5767 19.5602 17.9368 20.906 16.0182 21.7007C14.0996 22.4955 11.9884 22.7034 9.95156 22.2982C7.91476 21.8931 6.04383 20.8931 4.57538 19.4246C3.10693 17.9562 2.1069 16.0852 1.70176 14.0484C1.29661 12.0116 1.50455 9.90045 2.29927 7.98182C3.09399 6.0632 4.4398 4.42332 6.16652 3.26957ZM7.5 18.75V19.7824C8.86563 20.5798 10.4186 21 12 21C13.5814 21 15.1344 20.5798 16.5 19.7824V18.75C16.4993 18.1535 16.2621 17.5815 15.8403 17.1597C15.4185 16.7379 14.8465 16.5007 14.25 16.5H9.75C9.15347 16.5007 8.58155 16.7379 8.15974 17.1597C7.73792 17.5815 7.50066 18.1535 7.5 18.75ZM16.8782 16.0809C17.5786 16.772 17.9795 17.7105 17.9944 18.6944C19.3545 17.4799 20.3136 15.881 20.7448 14.1093C21.1759 12.3377 21.0588 10.4769 20.4089 8.77324C19.759 7.06963 18.607 5.6036 17.1054 4.56927C15.6037 3.53495 13.8234 2.98112 12 2.98112C10.1766 2.98112 8.39627 3.53495 6.89466 4.56927C5.39304 5.6036 4.24101 7.06963 3.59111 8.77324C2.9412 10.4769 2.82408 12.3377 3.25526 14.1093C3.68643 15.881 4.64555 17.4799 6.00563 18.6944C6.02054 17.7105 6.42139 16.772 7.1218 16.0809C7.8222 15.3899 8.76608 15.0017 9.75 15H14.25C15.2339 15.0017 16.1778 15.3899 16.8782 16.0809ZM9.91661 6.63199C10.5333 6.21993 11.2583 6 12 6C12.9946 6 13.9484 6.39509 14.6517 7.09835C15.3549 7.80161 15.75 8.75544 15.75 9.75C15.75 10.4917 15.5301 11.2167 15.118 11.8334C14.706 12.4501 14.1203 12.9307 13.4351 13.2145C12.7498 13.4984 11.9958 13.5726 11.2684 13.4279C10.541 13.2833 9.8728 12.9261 9.34835 12.4017C8.8239 11.8772 8.46675 11.209 8.32206 10.4816C8.17736 9.75416 8.25162 9.00016 8.53545 8.31494C8.81928 7.62971 9.29993 7.04404 9.91661 6.63199ZM10.75 11.6208C11.12 11.868 11.555 12 12 12C12.5965 11.9993 13.1684 11.7621 13.5902 11.3402C14.0121 10.9184 14.2493 10.3465 14.25 9.75C14.25 9.30499 14.118 8.86998 13.8708 8.49997C13.6236 8.12996 13.2722 7.84157 12.861 7.67127C12.4499 7.50097 11.9975 7.45642 11.561 7.54323C11.1246 7.63005 10.7237 7.84434 10.409 8.15901C10.0943 8.47368 9.88005 8.87459 9.79323 9.31105C9.70642 9.7475 9.75098 10.1999 9.92127 10.611C10.0916 11.0222 10.38 11.3736 10.75 11.6208Z" fill="#1382D3"/>
</svg>
